<svg width="100pt" height="100pt" viewBox="0 0 100 100" xmlns="http://www.w3.org/2000/svg">
    <path d="M58.871 56.617H89.91V84.25a3.528 3.528 0 0 1-3.527 3.527H13.617a3.528 3.528 0 0 1-3.528-3.527V56.617h31.254v.898h1.16v7.332a3.526 3.526 0 0 0 3.528 3.528h7.937a3.528 3.528 0 0 0 3.528-3.528v-7.332h1.375zm33.246-28.816V49.41a3.528 3.528 0 0 1-3.527 3.527H11.414a3.528 3.528 0 0 1-3.528-3.527V27.801a3.528 3.528 0 0 1 3.528-3.527h23.809v-6.938a5.114 5.114 0 0 1 5.117-5.113h19.324a5.116 5.116 0 0 1 5.117 5.113v6.942h23.81a3.523 3.523 0 0 1 3.526 3.523zm-34.395-8.523H42.277v4.996h15.445z"/>
</svg>
